<?xml version="1.0" ?>
<!DOCTYPE svg  PUBLIC '-//W3C//DTD SVG 1.1//EN'  'http://www.w3.org/Graphics/SVG/1.1/DTD/svg11.dtd'>
<!-- Uploaded to: SVG Repo, www.svgrepo.com, Generator: SVG Repo Mixer Tools -->
<svg width="800px" height="800px" viewBox="0 0 512 512" enable-background="new 0 0 512 512" id="Layer_1" version="1.1" xml:space="preserve" xmlns="http://www.w3.org/2000/svg" xmlns:xlink="http://www.w3.org/1999/xlink">
<g>
<g>
<path d="M462.395,174.758H49.605c-5.522,0-10-4.478-10-10v-30.941c0-5.522,4.478-10,10-10h412.789    c5.522,0,10,4.478,10,10v30.941C472.395,170.28,467.917,174.758,462.395,174.758z M59.605,154.758h392.789v-10.941H59.605V154.758    z" fill="#444B54"/>
</g>
<g>
<path d="M428.77,264.973H83.23c-5.522,0-10-4.478-10-10v-90.215c0-5.522,4.478-10,10-10H428.77    c5.522,0,10,4.478,10,10v90.215C438.77,260.495,434.292,264.973,428.77,264.973z M93.23,244.973H418.77v-70.215H93.23V244.973z" fill="#444B54"/>
</g>
<g>
<rect fill="#FFE477" height="123.211" width="33.296" x="83.23" y="254.973"/>
<path d="M116.526,388.184H83.23c-5.522,0-10-4.478-10-10V254.973c0-5.522,4.478-10,10-10h33.296    c5.522,0,10,4.478,10,10v123.211C126.526,383.706,122.049,388.184,116.526,388.184z M93.23,368.184h13.296V264.973H93.23V368.184z    " fill="#444B54"/>
</g>
<g>
<rect fill="#FFE477" height="123.211" width="33.296" x="395.474" y="254.973"/>
<path d="M428.77,388.184h-33.296c-5.522,0-10-4.478-10-10V254.973c0-5.522,4.478-10,10-10h33.296    c5.522,0,10,4.478,10,10v123.211C438.77,383.706,434.292,388.184,428.77,388.184z M405.474,368.184h13.296V264.973h-13.296    V368.184z" fill="#444B54"/>
</g>
<g>
<path d="M201.434,264.973H83.23c-5.522,0-10-4.478-10-10v-90.215c0-5.522,4.478-10,10-10h118.203    c5.522,0,10,4.478,10,10v90.215C211.434,260.495,206.956,264.973,201.434,264.973z M93.23,244.973h98.203v-70.215H93.23V244.973z" fill="#444B54"/>
</g>
<g>
<path d="M150.101,219.865h-17.334c-5.522,0-10-4.478-10-10s4.478-10,10-10h17.334c5.522,0,10,4.478,10,10    S155.623,219.865,150.101,219.865z" fill="#444B54"/>
</g>
<g>
<path d="M429.646,264.973H311.443c-5.522,0-10-4.478-10-10v-90.215c0-5.522,4.478-10,10-10h118.203    c5.522,0,10,4.478,10,10v90.215C439.646,260.495,435.169,264.973,429.646,264.973z M321.443,244.973h98.203v-70.215h-98.203    V244.973z" fill="#444B54"/>
</g>
<g>
<path d="M378.313,219.865h-17.334c-5.522,0-10-4.478-10-10s4.478-10,10-10h17.334c5.522,0,10,4.478,10,10    S383.836,219.865,378.313,219.865z" fill="#444B54"/>
</g>
<g>
<rect fill="#FFE477" height="30.941" width="412.789" x="49.605" y="133.816"/>
<path d="M462.395,174.758H49.605c-5.522,0-10-4.478-10-10v-30.941c0-5.522,4.478-10,10-10h412.789    c5.522,0,10,4.478,10,10v30.941C472.395,170.28,467.917,174.758,462.395,174.758z M59.605,154.758h392.789v-10.941H59.605V154.758    z" fill="#444B54"/>
</g>
<g>
<rect fill="#FFE477" height="90.215" width="345.539" x="83.23" y="164.758"/>
<path d="M428.77,264.973H83.23c-5.522,0-10-4.478-10-10v-90.215c0-5.522,4.478-10,10-10H428.77    c5.522,0,10,4.478,10,10v90.215C438.77,260.495,434.292,264.973,428.77,264.973z M93.23,244.973H418.77v-70.215H93.23V244.973z" fill="#444B54"/>
</g>
<g>
<rect fill="#FFE477" height="123.211" width="33.296" x="83.23" y="254.973"/>
<path d="M116.526,388.184H83.23c-5.522,0-10-4.478-10-10V254.973c0-5.522,4.478-10,10-10h33.296    c5.522,0,10,4.478,10,10v123.211C126.526,383.706,122.049,388.184,116.526,388.184z M93.23,368.184h13.296V264.973H93.23V368.184z    " fill="#444B54"/>
</g>
<g>
<rect fill="#FFE477" height="123.211" width="33.296" x="395.474" y="254.973"/>
<path d="M428.77,388.184h-33.296c-5.522,0-10-4.478-10-10V254.973c0-5.522,4.478-10,10-10h33.296    c5.522,0,10,4.478,10,10v123.211C438.77,383.706,434.292,388.184,428.77,388.184z M405.474,368.184h13.296V264.973h-13.296    V368.184z" fill="#444B54"/>
</g>
<g>
<rect fill="#5FA8DC" height="90.215" width="118.203" x="83.23" y="164.758"/>
<path d="M201.434,264.973H83.23c-5.522,0-10-4.478-10-10v-90.215c0-5.522,4.478-10,10-10h118.203    c5.522,0,10,4.478,10,10v90.215C211.434,260.495,206.956,264.973,201.434,264.973z M93.23,244.973h98.203v-70.215H93.23V244.973z" fill="#444B54"/>
</g>
<g>
<path d="M150.101,219.865h-17.334c-5.522,0-10-4.478-10-10s4.478-10,10-10h17.334c5.522,0,10,4.478,10,10    S155.623,219.865,150.101,219.865z" fill="#444B54"/>
</g>
<g>
<rect fill="#5FA8DC" height="90.215" width="118.203" x="311.443" y="164.758"/>
<path d="M429.646,264.973H311.443c-5.522,0-10-4.478-10-10v-90.215c0-5.522,4.478-10,10-10h118.203    c5.522,0,10,4.478,10,10v90.215C439.646,260.495,435.169,264.973,429.646,264.973z M321.443,244.973h98.203v-70.215h-98.203    V244.973z" fill="#444B54"/>
</g>
<g>
<path d="M378.313,219.865h-17.334c-5.522,0-10-4.478-10-10s4.478-10,10-10h17.334c5.522,0,10,4.478,10,10    S383.836,219.865,378.313,219.865z" fill="#444B54"/>
</g>
</g>
</svg>