<?xml version="1.0" ?>
<!DOCTYPE svg  PUBLIC '-//W3C//DTD SVG 1.1//EN'  'http://www.w3.org/Graphics/SVG/1.1/DTD/svg11.dtd'>
<!-- Uploaded to: SVG Repo, www.svgrepo.com, Generator: SVG Repo Mixer Tools -->
<svg width="800px" height="800px" viewBox="0 0 512 512" enable-background="new 0 0 512 512" id="Layer_1" version="1.1" xml:space="preserve" xmlns="http://www.w3.org/2000/svg" xmlns:xlink="http://www.w3.org/1999/xlink">
<g>
<g>
<rect fill="#F16259" height="326" width="288" x="112" y="105.816"/>
<path d="M400,441.816H112c-5.523,0-10-4.477-10-10v-326c0-5.523,4.477-10,10-10h288c5.522,0,10,4.477,10,10v326    C410,437.339,405.522,441.816,400,441.816z M122,421.816h268v-306H122V421.816z" fill="#444B54"/>
</g>
<g>
<rect fill="#D0C144" height="68" width="288" x="112" y="105.816"/>
<path d="M400,183.816H112c-5.523,0-10-4.477-10-10v-68c0-5.523,4.477-10,10-10h288c5.522,0,10,4.477,10,10v68    C410,179.339,405.522,183.816,400,183.816z M122,163.816h268v-48H122V163.816z" fill="#444B54"/>
</g>
<g>
<path d="M153.667,149.816h-0.333c-5.523,0-10-4.477-10-10s4.477-10,10-10h0.333c5.523,0,10,4.477,10,10    S159.189,149.816,153.667,149.816z" fill="#444B54"/>
</g>
<g>
<path d="M347.666,149.816h-0.333c-5.522,0-10-4.477-10-10s4.478-10,10-10h0.333c5.522,0,10,4.477,10,10    S353.188,149.816,347.666,149.816z" fill="#444B54"/>
</g>
<g>
<path d="M400,441.816H112c-5.523,0-10-4.477-10-10v-326c0-5.523,4.477-10,10-10h288c5.522,0,10,4.477,10,10v326    C410,437.339,405.522,441.816,400,441.816z M122,421.816h268v-306H122V421.816z" fill="#444B54"/>
</g>
<g>
<path d="M400,183.816H112c-5.523,0-10-4.477-10-10v-68c0-5.523,4.477-10,10-10h288c5.522,0,10,4.477,10,10v68    C410,179.339,405.522,183.816,400,183.816z M122,163.816h268v-48H122V163.816z" fill="#444B54"/>
</g>
<g>
<path d="M358.5,387.816h-205c-5.523,0-10-4.477-10-10v-127c0-5.523,4.477-10,10-10h205c5.522,0,10,4.477,10,10v127    C368.5,383.339,364.022,387.816,358.5,387.816z M163.5,367.816h185v-107h-185V367.816z" fill="#444B54"/>
</g>
<g>
<path d="M285,149.816h-65c-5.523,0-10-4.477-10-10s4.477-10,10-10h65c5.522,0,10,4.477,10,10    S290.522,149.816,285,149.816z" fill="#444B54"/>
</g>
<g>
<path d="M223.333,97.996c0,4.319-5.373,7.82-12,7.82h-60.667c-6.627,0-12-3.501-12-7.82v-9.993    c0-4.318,5.373-7.819,12-7.819h60.667c6.627,0,12,3.501,12,7.819V97.996z" fill="#55939C"/>
<path d="M211.333,115.816h-60.667c-12.336,0-22-7.828-22-17.82v-9.993c0-9.992,9.664-17.819,22-17.819h60.667    c12.336,0,22,7.827,22,17.819v9.993C233.333,107.989,223.67,115.816,211.333,115.816z M148.667,95.563    c0.504,0.139,1.176,0.253,2,0.253h60.667c0.824,0,1.496-0.115,2-0.253v-5.126c-0.504-0.139-1.177-0.253-2-0.253h-60.667    c-0.823,0-1.496,0.115-2,0.253V95.563z" fill="#444B54"/>
</g>
<g>
<path d="M376,97.996c0,4.319-5.373,7.82-12,7.82h-60.667c-6.628,0-12-3.501-12-7.82v-9.993    c0-4.318,5.372-7.819,12-7.819H364c6.627,0,12,3.501,12,7.819V97.996z" fill="#55939C"/>
<path d="M364,115.816h-60.667c-12.337,0-22-7.828-22-17.82v-9.993c0-9.992,9.663-17.819,22-17.819H364    c12.337,0,22,7.827,22,17.819v9.993C386,107.989,376.337,115.816,364,115.816z M301.333,95.563c0.505,0.139,1.177,0.253,2,0.253    H364c0.823,0,1.495-0.115,2-0.253v-5.126c-0.505-0.139-1.177-0.253-2-0.253h-60.667c-0.823,0-1.495,0.115-2,0.253V95.563z" fill="#444B54"/>
</g>
<g>
<path d="M153.667,149.816h-0.333c-5.523,0-10-4.477-10-10s4.477-10,10-10h0.333c5.523,0,10,4.477,10,10    S159.189,149.816,153.667,149.816z" fill="#444B54"/>
</g>
<g>
<path d="M347.666,149.816h-0.333c-5.522,0-10-4.477-10-10s4.478-10,10-10h0.333c5.522,0,10,4.477,10,10    S353.188,149.816,347.666,149.816z" fill="#444B54"/>
</g>
<g>
<rect fill="#D0C144" height="127" width="205" x="153.5" y="250.816"/>
<path d="M358.5,387.816h-205c-5.523,0-10-4.477-10-10v-127c0-5.523,4.477-10,10-10h205c5.522,0,10,4.477,10,10v127    C368.5,383.339,364.022,387.816,358.5,387.816z M163.5,367.816h185v-107h-185V367.816z" fill="#444B54"/>
</g>
<g>
<path d="M285,149.816h-65c-5.523,0-10-4.477-10-10s4.477-10,10-10h65c5.522,0,10,4.477,10,10    S290.522,149.816,285,149.816z" fill="#444B54"/>
</g>
<g>
<path d="M223.333,97.996c0,4.319-5.373,7.82-12,7.82h-60.667c-6.627,0-12-3.501-12-7.82v-9.993    c0-4.318,5.373-7.819,12-7.819h60.667c6.627,0,12,3.501,12,7.819V97.996z" fill="#55939C"/>
<path d="M211.333,115.816h-60.667c-12.336,0-22-7.828-22-17.82v-9.993c0-9.992,9.664-17.819,22-17.819h60.667    c12.336,0,22,7.827,22,17.819v9.993C233.333,107.989,223.67,115.816,211.333,115.816z M148.667,95.563    c0.504,0.139,1.176,0.253,2,0.253h60.667c0.824,0,1.496-0.115,2-0.253v-5.126c-0.504-0.139-1.177-0.253-2-0.253h-60.667    c-0.823,0-1.496,0.115-2,0.253V95.563z" fill="#444B54"/>
</g>
<g>
<path d="M376,97.996c0,4.319-5.373,7.82-12,7.82h-60.667c-6.628,0-12-3.501-12-7.82v-9.993    c0-4.318,5.372-7.819,12-7.819H364c6.627,0,12,3.501,12,7.819V97.996z" fill="#55939C"/>
<path d="M364,115.816h-60.667c-12.337,0-22-7.828-22-17.82v-9.993c0-9.992,9.663-17.819,22-17.819H364    c12.337,0,22,7.827,22,17.819v9.993C386,107.989,376.337,115.816,364,115.816z M301.333,95.563c0.505,0.139,1.177,0.253,2,0.253    H364c0.823,0,1.495-0.115,2-0.253v-5.126c-0.505-0.139-1.177-0.253-2-0.253h-60.667c-0.823,0-1.495,0.115-2,0.253V95.563z" fill="#444B54"/>
</g>
</g>
</svg>