<?xml version="1.0" ?>
<!DOCTYPE svg  PUBLIC '-//W3C//DTD SVG 1.1//EN'  'http://www.w3.org/Graphics/SVG/1.1/DTD/svg11.dtd'>
<!-- Uploaded to: SVG Repo, www.svgrepo.com, Generator: SVG Repo Mixer Tools -->
<svg width="800px" height="800px" viewBox="0 0 512 512" enable-background="new 0 0 512 512" id="Layer_1" version="1.1" xml:space="preserve" xmlns="http://www.w3.org/2000/svg" xmlns:xlink="http://www.w3.org/1999/xlink">
<g>
<g>
<path d="M431.5,404h-351c-5.522,0-10-4.478-10-10V73c0-5.522,4.478-10,10-10h351c5.522,0,10,4.478,10,10v321    C441.5,399.522,437.022,404,431.5,404z M90.5,384h331V83h-331V384z" fill="#444B54"/>
</g>
<g>
<path d="M231.5,404h-151c-5.522,0-10-4.478-10-10V73c0-5.522,4.478-10,10-10h151c5.522,0,10,4.478,10,10v321    C241.5,399.522,237.022,404,231.5,404z M90.5,384h131V83h-131V384z" fill="#444B54"/>
</g>
<g>
<path d="M431.5,312h-200c-5.522,0-10-4.478-10-10V73c0-5.522,4.478-10,10-10h200c5.522,0,10,4.478,10,10v229    C441.5,307.522,437.022,312,431.5,312z M241.5,292h180V83h-180V292z" fill="#444B54"/>
</g>
<g>
<path d="M431.5,404h-200c-5.522,0-10-4.478-10-10v-92c0-5.522,4.478-10,10-10h200c5.522,0,10,4.478,10,10v92    C441.5,399.522,437.022,404,431.5,404z M241.5,384h180v-72h-180V384z" fill="#444B54"/>
</g>
<g>
<path d="M197.5,248.023c-5.522,0-10-4.478-10-10V218c0-5.522,4.478-10,10-10s10,4.478,10,10v20.023    C207.5,243.546,203.022,248.023,197.5,248.023z" fill="#444B54"/>
</g>
<g>
<path d="M344.5,358h-22c-5.522,0-10-4.478-10-10s4.478-10,10-10h22c5.522,0,10,4.478,10,10S350.022,358,344.5,358z    " fill="#444B54"/>
</g>
<g>
<path d="M266.5,135c-2.56,0-5.118-0.977-7.071-2.929c-3.905-3.905-3.905-10.237,0-14.143l18-18    c3.906-3.904,10.236-3.904,14.143,0c3.905,3.905,3.905,10.237,0,14.143l-18,18C271.618,134.023,269.06,135,266.5,135z" fill="#444B54"/>
</g>
<g>
<path d="M266.5,172.5c-2.56,0-5.118-0.977-7.071-2.929c-3.905-3.905-3.905-10.237,0-14.143l50.5-50.5    c3.906-3.904,10.236-3.904,14.143,0c3.905,3.905,3.905,10.237,0,14.143l-50.5,50.5C271.618,171.523,269.06,172.5,266.5,172.5z" fill="#444B54"/>
</g>
<g>
<path d="M80.5,449c-5.522,0-10-4.478-10-10v-45c0-5.522,4.478-10,10-10s10,4.478,10,10v45    C90.5,444.522,86.022,449,80.5,449z" fill="#444B54"/>
</g>
<g>
<path d="M431.5,449c-5.522,0-10-4.478-10-10v-45c0-5.522,4.478-10,10-10s10,4.478,10,10v45    C441.5,444.522,437.022,449,431.5,449z" fill="#444B54"/>
</g>
<g>
<path d="M431.5,404h-351c-5.522,0-10-4.478-10-10V73c0-5.522,4.478-10,10-10h351c5.522,0,10,4.478,10,10v321    C441.5,399.522,437.022,404,431.5,404z M90.5,384h331V83h-331V384z" fill="#444B54"/>
</g>
<g>
<rect fill="#F16259" height="321" width="151" x="80.5" y="73"/>
<path d="M231.5,404h-151c-5.522,0-10-4.478-10-10V73c0-5.522,4.478-10,10-10h151c5.522,0,10,4.478,10,10v321    C241.5,399.522,237.022,404,231.5,404z M90.5,384h131V83h-131V384z" fill="#444B54"/>
</g>
<g>
<rect fill="#D0C144" height="229" width="200" x="231.5" y="73"/>
<path d="M431.5,312h-200c-5.522,0-10-4.478-10-10V73c0-5.522,4.478-10,10-10h200c5.522,0,10,4.478,10,10v229    C441.5,307.522,437.022,312,431.5,312z M241.5,292h180V83h-180V292z" fill="#444B54"/>
</g>
<g>
<rect fill="#F16259" height="92" width="200" x="231.5" y="302"/>
<path d="M431.5,404h-200c-5.522,0-10-4.478-10-10v-92c0-5.522,4.478-10,10-10h200c5.522,0,10,4.478,10,10v92    C441.5,399.522,437.022,404,431.5,404z M241.5,384h180v-72h-180V384z" fill="#444B54"/>
</g>
<g>
<path d="M197.5,248.023c-5.522,0-10-4.478-10-10V218c0-5.522,4.478-10,10-10s10,4.478,10,10v20.023    C207.5,243.546,203.022,248.023,197.5,248.023z" fill="#444B54"/>
</g>
<g>
<path d="M344.5,358h-22c-5.522,0-10-4.478-10-10s4.478-10,10-10h22c5.522,0,10,4.478,10,10S350.022,358,344.5,358z    " fill="#444B54"/>
</g>
<g>
<path d="M266.5,135c-2.56,0-5.118-0.977-7.071-2.929c-3.905-3.905-3.905-10.237,0-14.143l18-18    c3.906-3.904,10.236-3.904,14.143,0c3.905,3.905,3.905,10.237,0,14.143l-18,18C271.618,134.023,269.06,135,266.5,135z" fill="#444B54"/>
</g>
<g>
<path d="M266.5,172.5c-2.56,0-5.118-0.977-7.071-2.929c-3.905-3.905-3.905-10.237,0-14.143l50.5-50.5    c3.906-3.904,10.236-3.904,14.143,0c3.905,3.905,3.905,10.237,0,14.143l-50.5,50.5C271.618,171.523,269.06,172.5,266.5,172.5z" fill="#444B54"/>
</g>
<g>
<path d="M80.5,449c-5.522,0-10-4.478-10-10v-45c0-5.522,4.478-10,10-10s10,4.478,10,10v45    C90.5,444.522,86.022,449,80.5,449z" fill="#444B54"/>
</g>
<g>
<path d="M431.5,449c-5.522,0-10-4.478-10-10v-45c0-5.522,4.478-10,10-10s10,4.478,10,10v45    C441.5,444.522,437.022,449,431.5,449z" fill="#444B54"/>
</g>
</g>
</svg>