<?xml version="1.0" ?>
<!DOCTYPE svg  PUBLIC '-//W3C//DTD SVG 1.1//EN'  'http://www.w3.org/Graphics/SVG/1.1/DTD/svg11.dtd'>
<!-- Uploaded to: SVG Repo, www.svgrepo.com, Generator: SVG Repo Mixer Tools -->
<svg width="800px" height="800px" viewBox="0 0 512 512" enable-background="new 0 0 512 512" id="Layer_1" version="1.1" xml:space="preserve" xmlns="http://www.w3.org/2000/svg" xmlns:xlink="http://www.w3.org/1999/xlink">
<g>
<path d="M401.449,432.74c-5.523,0-10-4.477-10-10v-65.396c0-5.523,4.477-10,10-10s10,4.477,10,10v65.396   C411.449,428.263,406.972,432.74,401.449,432.74z" fill="#444B54"/>
</g>
<g>
<g>
<path d="M401.449,356.307c0,7.473-6.058,13.53-13.53,13.53H124.081c-7.472,0-13.53-6.058-13.53-13.53V253.703    c0-7.473,6.058-13.53,13.53-13.53h263.839c7.472,0,13.53,6.058,13.53,13.53V356.307z" fill="#F16259"/>
<path d="M387.919,379.837H124.081c-12.975,0-23.53-10.556-23.53-23.53V253.703c0-12.975,10.555-23.53,23.53-23.53    h263.839c12.975,0,23.53,10.556,23.53,23.53v102.604C411.449,369.281,400.894,379.837,387.919,379.837z M124.081,250.173    c-1.946,0-3.53,1.583-3.53,3.53v102.604c0,1.947,1.583,3.53,3.53,3.53h263.839c1.946,0,3.53-1.583,3.53-3.53V253.703    c0-1.947-1.583-3.53-3.53-3.53H124.081z" fill="#444B54"/>
</g>
<g>
<path d="M256,331.918c-10.177,0-18.457-8.28-18.457-18.457c0-10.177,8.28-18.456,18.457-18.456    s18.457,8.279,18.457,18.456C274.457,323.638,266.177,331.918,256,331.918z M256,311.918c-0.851,0-1.543,0.692-1.543,1.543    c0,0.852,0.692,1.544,1.543,1.544s1.543-0.692,1.543-1.544C257.543,312.61,256.851,311.918,256,311.918z" fill="#444B54"/>
</g>
<g>
<path d="M312.528,175.757c-0.008,0-0.014,0-0.02,0H200.62c-3.166,0-6.145-1.499-8.031-4.041    c-1.886-2.542-2.458-5.828-1.54-8.857l22.853-75.46c1.277-4.217,5.165-7.102,9.571-7.102h64.754c4.343,0,8.189,2.803,9.52,6.937    l24.081,74.839c0.452,1.14,0.701,2.383,0.701,3.684C322.528,171.28,318.051,175.757,312.528,175.757z M214.097,155.757h84.688    l-17.846-55.46h-50.047L214.097,155.757z" fill="#444B54"/>
</g>
<g>
<path d="M256.564,250.173c-5.523,0-10-4.477-10-10v-74.416c0-5.523,4.477-10,10-10s10,4.477,10,10v74.416    C266.564,245.696,262.087,250.173,256.564,250.173z" fill="#444B54"/>
</g>
<g>
<path d="M286.443,201.896c-5.523,0-10-4.477-10-10v-21.63c0-5.523,4.477-10,10-10s10,4.477,10,10v21.63    C296.443,197.419,291.966,201.896,286.443,201.896z" fill="#444B54"/>
</g>
<g>
<path d="M387.919,379.837H124.081c-12.975,0-23.53-10.556-23.53-23.53V253.703c0-12.975,10.555-23.53,23.53-23.53    h263.839c12.975,0,23.53,10.556,23.53,23.53v102.604C411.449,369.281,400.894,379.837,387.919,379.837z M124.081,250.173    c-1.946,0-3.53,1.583-3.53,3.53v102.604c0,1.947,1.583,3.53,3.53,3.53h263.839c1.946,0,3.53-1.583,3.53-3.53V253.703    c0-1.947-1.583-3.53-3.53-3.53H124.081z" fill="#444B54"/>
</g>
<g>
<path d="M110.551,431.703c-5.523,0-10-4.477-10-10v-65.396c0-5.523,4.477-10,10-10s10,4.477,10,10v65.396    C120.551,427.226,116.074,431.703,110.551,431.703z" fill="#444B54"/>
</g>
<g>
<path d="M256,331.918c-10.177,0-18.457-8.28-18.457-18.457c0-10.177,8.28-18.456,18.457-18.456    s18.457,8.279,18.457,18.456C274.457,323.638,266.177,331.918,256,331.918z M256,311.918c-0.851,0-1.543,0.692-1.543,1.543    c0,0.852,0.692,1.544,1.543,1.544s1.543-0.692,1.543-1.544C257.543,312.61,256.851,311.918,256,311.918z" fill="#444B54"/>
</g>
<g>
<polygon fill="#DCB892" points="312.508,165.757 200.62,165.757 223.473,90.297 288.227,90.297   "/>
<path d="M312.528,175.757c-0.008,0-0.014,0-0.02,0H200.62c-3.166,0-6.145-1.499-8.031-4.041    c-1.886-2.542-2.458-5.828-1.54-8.857l22.853-75.46c1.277-4.217,5.165-7.102,9.571-7.102h64.754c4.343,0,8.189,2.803,9.52,6.937    l24.081,74.839c0.452,1.14,0.701,2.383,0.701,3.684C322.528,171.28,318.051,175.757,312.528,175.757z M214.097,155.757h84.688    l-17.846-55.46h-50.047L214.097,155.757z" fill="#444B54"/>
</g>
<g>
<path d="M256.564,250.173c-5.523,0-10-4.477-10-10v-74.416c0-5.523,4.477-10,10-10s10,4.477,10,10v74.416    C266.564,245.696,262.087,250.173,256.564,250.173z" fill="#444B54"/>
</g>
<g>
<path d="M286.443,201.896c-5.523,0-10-4.477-10-10v-21.63c0-5.523,4.477-10,10-10s10,4.477,10,10v21.63    C296.443,197.419,291.966,201.896,286.443,201.896z" fill="#444B54"/>
</g>
<g>
<path d="M110.551,431.703c-5.523,0-10-4.477-10-10v-65.396c0-5.523,4.477-10,10-10s10,4.477,10,10v65.396    C120.551,427.226,116.074,431.703,110.551,431.703z" fill="#444B54"/>
</g>
</g>
<g>
<path d="M401.449,432.74c-5.523,0-10-4.477-10-10v-65.396c0-5.523,4.477-10,10-10s10,4.477,10,10v65.396   C411.449,428.263,406.972,432.74,401.449,432.74z" fill="#444B54"/>
</g>
</svg>