<?xml version="1.0" ?>
<!DOCTYPE svg  PUBLIC '-//W3C//DTD SVG 1.1//EN'  'http://www.w3.org/Graphics/SVG/1.1/DTD/svg11.dtd'>
<!-- Uploaded to: SVG Repo, www.svgrepo.com, Generator: SVG Repo Mixer Tools -->
<svg width="800px" height="800px" viewBox="0 0 512 512" enable-background="new 0 0 512 512" id="Layer_1" version="1.1" xml:space="preserve" xmlns="http://www.w3.org/2000/svg" xmlns:xlink="http://www.w3.org/1999/xlink">
<g>
<g>
<path d="M255.993,294.099c-11.21,0-22.316-1.507-33.011-4.479c-53.147-14.73-90.271-63.59-90.271-118.816    c0-5.523,4.478-10,10-10h226.576c5.522,0,10,4.477,10,10c0,55.217-37.117,104.071-90.263,118.805    C278.362,292.586,267.242,294.099,255.993,294.099z M153.198,180.804c4.105,42.074,33.846,78.102,75.132,89.545    c8.957,2.489,18.263,3.75,27.663,3.75c9.431,0,18.74-1.265,27.671-3.758c41.294-11.448,71.029-47.475,75.138-89.537H153.198z" fill="#444B54"/>
</g>
<g>
<path d="M286.354,454.6h-60.694c-2.756,0-5.389-1.137-7.278-3.143c-1.89-2.006-2.868-4.702-2.704-7.453    l9.658-161.931c0.18-3.015,1.713-5.788,4.171-7.543c2.459-1.755,5.575-2.308,8.489-1.497c4.517,1.255,6.119,1.357,7.611,1.357    c0.838,0,1.787-0.043,2.988-0.099c1.872-0.086,4.203-0.193,7.398-0.193c3.212,0,5.552,0.109,7.432,0.197    c1.205,0.056,2.157,0.101,2.997,0.101c0,0,0,0,0.001,0c1.487,0,3.085-0.102,7.582-1.358c2.912-0.813,6.035-0.267,8.496,1.489    c2.461,1.755,3.997,4.529,4.177,7.547l9.658,161.931c0.164,2.75-0.814,5.447-2.704,7.453    C291.742,453.462,289.109,454.6,286.354,454.6z M236.273,434.6h39.466l-8.363-140.215c-0.315,0.008-0.634,0.011-0.954,0.011    c0,0,0,0-0.001,0c-1.305,0-2.579-0.059-3.928-0.122c-1.76-0.082-3.755-0.175-6.5-0.175c-2.735,0-4.724,0.092-6.479,0.172    c-1.679,0.078-3.277,0.148-4.878,0.108L236.273,434.6z" fill="#444B54"/>
</g>
<g>
<path d="M256.007,180.804c-5.522,0-10-4.477-10-10v-49.453c0-5.523,4.478-10,10-10s10,4.477,10,10v49.453    C266.007,176.327,261.529,180.804,256.007,180.804z" fill="#444B54"/>
</g>
<g>
<path d="M256.007,131.351c-5.522,0-10-4.477-10-10c0-35.262,28.688-63.95,63.949-63.95c5.522,0,10,4.477,10,10    s-4.478,10-10,10c-24.233,0-43.949,19.716-43.949,43.95C266.007,126.874,261.529,131.351,256.007,131.351z" fill="#444B54"/>
</g>
<g>
<path d="M282.108,131.351h-52.203c-5.522,0-10-4.477-10-10s4.478-10,10-10h52.203c5.522,0,10,4.477,10,10    S287.631,131.351,282.108,131.351z" fill="#444B54"/>
</g>
<g>
<path d="M369.288,170.804c0,52.048-35.108,95.909-82.935,109.168c-9.658,2.697-19.84,4.127-30.36,4.127    c-10.506,0-20.676-1.43-30.334-4.113c-47.839-13.259-82.947-57.12-82.947-109.182H369.288z" fill="#DCB892"/>
<path d="M255.993,294.099c-11.21,0-22.316-1.507-33.011-4.479c-53.147-14.73-90.271-63.59-90.271-118.816    c0-5.523,4.478-10,10-10h226.576c5.522,0,10,4.477,10,10c0,55.217-37.117,104.071-90.263,118.805    C278.362,292.586,267.242,294.099,255.993,294.099z M153.198,180.804c4.105,42.074,33.846,78.102,75.132,89.545    c8.957,2.489,18.263,3.75,27.663,3.75c9.431,0,18.74-1.265,27.671-3.758c41.294-11.448,71.029-47.475,75.138-89.537H153.198z" fill="#444B54"/>
</g>
<g>
<path d="M276.695,282.669l9.658,161.931h-60.694l9.658-161.931c9.657,2.684,10.17,1.43,20.676,1.43    C266.514,284.099,267.039,285.366,276.695,282.669z" fill="#D0C144"/>
<path d="M286.354,454.6h-60.694c-2.756,0-5.389-1.137-7.278-3.143c-1.89-2.006-2.868-4.702-2.704-7.453    l9.658-161.931c0.18-3.015,1.713-5.788,4.171-7.543c2.459-1.755,5.575-2.308,8.489-1.497c4.517,1.255,6.119,1.357,7.611,1.357    c0.838,0,1.787-0.043,2.988-0.099c1.872-0.086,4.203-0.193,7.398-0.193c3.212,0,5.552,0.109,7.432,0.197    c1.205,0.056,2.157,0.101,2.997,0.101c0,0,0,0,0.001,0c1.487,0,3.085-0.102,7.582-1.358c2.912-0.813,6.035-0.267,8.496,1.489    c2.461,1.755,3.997,4.529,4.177,7.547l9.658,161.931c0.164,2.75-0.814,5.447-2.704,7.453    C291.742,453.462,289.109,454.6,286.354,454.6z M236.273,434.6h39.466l-8.363-140.215c-0.315,0.008-0.634,0.011-0.954,0.011    c0,0,0,0-0.001,0c-1.305,0-2.579-0.059-3.928-0.122c-1.76-0.082-3.755-0.175-6.5-0.175c-2.735,0-4.724,0.092-6.479,0.172    c-1.679,0.078-3.277,0.148-4.878,0.108L236.273,434.6z" fill="#444B54"/>
</g>
<g>
<path d="M256.007,180.804c-5.522,0-10-4.477-10-10v-49.453c0-5.523,4.478-10,10-10s10,4.477,10,10v49.453    C266.007,176.327,261.529,180.804,256.007,180.804z" fill="#444B54"/>
</g>
<g>
<path d="M256.007,131.351c-5.522,0-10-4.477-10-10c0-35.262,28.688-63.95,63.949-63.95c5.522,0,10,4.477,10,10    s-4.478,10-10,10c-24.233,0-43.949,19.716-43.949,43.95C266.007,126.874,261.529,131.351,256.007,131.351z" fill="#444B54"/>
</g>
<g>
<path d="M282.108,131.351h-52.203c-5.522,0-10-4.477-10-10s4.478-10,10-10h52.203c5.522,0,10,4.477,10,10    S287.631,131.351,282.108,131.351z" fill="#444B54"/>
</g>
</g>
</svg>